<svg width="16" height="14" viewBox="0 0 16 14" fill="none" xmlns="http://www.w3.org/2000/svg">
<path d="M15.403 1.78924H0.597015C0.438677 1.78924 0.286824 1.72825 0.174862 1.61967C0.0628996 1.5111 0 1.36384 0 1.2103C0 1.05675 0.0628996 0.909491 0.174862 0.800917C0.286824 0.692343 0.438677 0.631348 0.597015 0.631348H15.403C15.5613 0.631348 15.7132 0.692343 15.8251 0.800917C15.9371 0.909491 16 1.05675 16 1.2103C16 1.36384 15.9371 1.5111 15.8251 1.61967C15.7132 1.72825 15.5613 1.78924 15.403 1.78924Z" fill="#F8FCFF"/>
<path d="M15.403 7.57879H0.597015C0.438677 7.57879 0.286824 7.5178 0.174862 7.40922C0.0628996 7.30065 0 7.15339 0 6.99985C0 6.8463 0.0628996 6.69904 0.174862 6.59047C0.286824 6.48189 0.438677 6.4209 0.597015 6.4209H15.403C15.5613 6.4209 15.7132 6.48189 15.8251 6.59047C15.9371 6.69904 16 6.8463 16 6.99985C16 7.15339 15.9371 7.30065 15.8251 7.40922C15.7132 7.5178 15.5613 7.57879 15.403 7.57879Z" fill="#F8FCFF"/>
<path d="M11.5522 13.3683H0.447761C0.329007 13.3683 0.215118 13.3073 0.131146 13.1988C0.0471747 13.0902 0 12.9429 0 12.7894C0 12.6359 0.0471747 12.4886 0.131146 12.38C0.215118 12.2714 0.329007 12.2104 0.447761 12.2104H11.5522C11.671 12.2104 11.7849 12.2714 11.8689 12.38C11.9528 12.4886 12 12.6359 12 12.7894C12 12.9429 11.9528 13.0902 11.8689 13.1988C11.7849 13.3073 11.671 13.3683 11.5522 13.3683Z" fill="#F8FCFF"/>
</svg>
