<svg width="20" height="20" viewBox="0 0 20 20" fill="none" xmlns="http://www.w3.org/2000/svg">
<path d="M10.0005 10C12.1246 10 13.8466 7.98528 13.8466 5.5C13.8466 3.01472 12.1246 1 10.0005 1C7.87628 1 6.1543 3.01472 6.1543 5.5C6.1543 7.98528 7.87628 10 10.0005 10Z" stroke="#333232" stroke-linecap="round" stroke-linejoin="round"/>
<path d="M1.0274 18.9998H18.9726M1.0274 18.9998C1.00914 18.7833 1 18.5662 1 18.349C1 16.1347 1.94821 14.0111 3.63604 12.4454C5.32386 10.8796 7.61304 10 9.99999 10C11.1819 10 12.3522 10.216 13.4441 10.6355C14.5361 11.0551 15.5282 11.6701 16.364 12.4454C17.1997 13.2206 17.8626 14.141 18.3149 15.154C18.7672 16.1669 19 17.2526 19 18.349V18.349C19 18.5662 18.9909 18.7834 18.9726 19" stroke="#333232" stroke-linecap="round" stroke-linejoin="round"/>
</svg>
